<svg id="Layer_1" data-name="Layer 1" xmlns="http://www.w3.org/2000/svg" viewBox="0 0 128 128"><defs><style>.cls-1{fill:#cfb795;}</style></defs><title>calculator-icon</title><circle class="cls-1" cx="64" cy="64" r="64"/><path d="M89.8,26H38.23a7.22,7.22,0,0,0-7,7V94a7.21,7.21,0,0,0,7,7H89.8a7.21,7.21,0,0,0,7-7V33A7.22,7.22,0,0,0,89.8,26ZM50,89.75a2,2,0,0,1-1.88,1.87H42.44a2,2,0,0,1-1.87-1.87V84.12a2,2,0,0,1,1.87-1.87h5.63A2,2,0,0,1,50,84.12ZM50,71a2,2,0,0,1-1.88,1.88H42.44A2,2,0,0,1,40.57,71V65.37a2,2,0,0,1,1.87-1.88h5.63A2,2,0,0,1,50,65.37ZM68.7,89.75a2,2,0,0,1-1.87,1.87H61.2a2,2,0,0,1-1.88-1.87V84.12a2,2,0,0,1,1.88-1.87h5.63a2,2,0,0,1,1.87,1.87v5.63ZM68.7,71a2,2,0,0,1-1.87,1.88H61.2A2,2,0,0,1,59.32,71V65.37a2,2,0,0,1,1.88-1.88h5.63a2,2,0,0,1,1.87,1.88V71ZM87.45,89.75a2,2,0,0,1-1.87,1.87H80a2,2,0,0,1-1.87-1.87V65.37A2,2,0,0,1,80,63.49h5.63a2,2,0,0,1,1.87,1.88V89.75Zm0-37.51a2,2,0,0,1-1.87,1.87H42.44a2,2,0,0,1-1.87-1.87v-15a2,2,0,0,1,1.87-1.88H85.58a2,2,0,0,1,1.87,1.88Z"/></svg>